<svg xmlns="http://www.w3.org/2000/svg" viewBox="0 0 273.5 64.1"><defs><style>.cls-1{fill:#FFF;}.cls-2{fill:#FFF;}</style></defs><title>ng-logo-heart</title><g id="Layer_2" data-name="Layer 2"><g id="Layer_1-2" data-name="Layer 1"><path class="cls-1" d="M19.2,8.3c.7-1.1,1.3-2,2-2.9A17,17,0,0,1,23.4,3a11.1,11.1,0,0,1,2.4-1.6A6.2,6.2,0,0,1,28.4.8l1.3.3a5,5,0,0,1,1.4.8,5.5,5.5,0,0,1,1,1.7,8.2,8.2,0,0,1,.4,2.5V41a5.3,5.3,0,0,0,.2,1.9,3.3,3.3,0,0,0,.5,1.2,1.9,1.9,0,0,0,.7.8l.7.6.5.4c.2.1.2.3.2.5a.8.8,0,0,1-.2.7,1.3,1.3,0,0,1-.6.7,3.1,3.1,0,0,1-1,.5l-1.2.2a4.4,4.4,0,0,1-1.5-.3,3.3,3.3,0,0,1-1.4-1,5.5,5.5,0,0,1-1.1-2,9.3,9.3,0,0,1-.5-3.2V6.4a1,1,0,0,0-.2-.7h-.4a1.9,1.9,0,0,0-1.2.7L24.4,8.2a21.1,21.1,0,0,0-1.8,2.7A30.7,30.7,0,0,0,20.9,14a17.5,17.5,0,0,0-1.2,3.2,9.7,9.7,0,0,0-.5,2.8V43.1a1.2,1.2,0,0,1-.4,1.1,2.7,2.7,0,0,1-1.2.3H16.5l-.9-.4-.7-.6a.9.9,0,0,1-.3-.6V5.5a12.1,12.1,0,0,0-3.8,1.2A8.2,8.2,0,0,0,7.6,9.1a10.7,10.7,0,0,0-2.1,3.6,16,16,0,0,0-.8,5.1A14.7,14.7,0,0,0,5.1,21,23,23,0,0,0,6,23.5,4.8,4.8,0,0,0,7.1,25c.3.4.6.6.8.6h1c.3,0,.4.2.4.7a3.9,3.9,0,0,1-.2,1.5,3.6,3.6,0,0,1-.8,1.2,2.8,2.8,0,0,1-1,.9,2.8,2.8,0,0,1-1.2.4,3.3,3.3,0,0,1-1.8-1,9.4,9.4,0,0,1-2-2.6A15.8,15.8,0,0,1,.7,22.6,15.1,15.1,0,0,1,0,17.8a19.6,19.6,0,0,1,.8-5.7,14.8,14.8,0,0,1,2-4.4,13,13,0,0,1,3-3.2A14.1,14.1,0,0,1,9.3,2.4a14.6,14.6,0,0,1,3.9-1.2A15.3,15.3,0,0,1,16.8.8l1,.2.7.5a3.5,3.5,0,0,1,.5.8,2,2,0,0,1,.2,1Z"/><path class="cls-1" d="M55,40.5a2,2,0,0,0,1.5-.6,6.7,6.7,0,0,0,1.2-1.6,18,18,0,0,0,.8-2.1c.2-.8.3-1.5.5-2.1a2.3,2.3,0,0,1,.6-1.4.9.9,0,0,1,.8-.4l.8.2a3.4,3.4,0,0,1,.6.6,2.2,2.2,0,0,1,.5.8,1.3,1.3,0,0,1,.2.8v.5a23.3,23.3,0,0,1-1.1,3.1,11.1,11.1,0,0,1-1.7,3,8.8,8.8,0,0,1-2.4,2.3,6.4,6.4,0,0,1-3.4.9,5.1,5.1,0,0,1-2.8-.7A3.9,3.9,0,0,1,49.3,42a9.6,9.6,0,0,1-2.2,1.8,5.8,5.8,0,0,1-3,.7,6.2,6.2,0,0,1-3.1-.7,6.7,6.7,0,0,1-2.2-1.9A8.7,8.7,0,0,1,37.4,39a13.7,13.7,0,0,1-.4-3.6,17.8,17.8,0,0,1,1.2-6.7,14.8,14.8,0,0,1,3.2-5.1,14.2,14.2,0,0,1,4.5-3.2,14,14,0,0,1,5.3-1.1,2.6,2.6,0,0,1,2,.7,2.2,2.2,0,0,1,.8,1.8,2.7,2.7,0,0,1-.2,1.1.6.6,0,0,1-.6.3H51.5a8.7,8.7,0,0,0-3.5.7,10,10,0,0,0-3.2,2.3A12.2,12.2,0,0,0,42.5,30a16,16,0,0,0-.9,5.6,6.5,6.5,0,0,0,.9,3.7A2.9,2.9,0,0,0,45,40.5a2.9,2.9,0,0,0,2.1-.9,9.1,9.1,0,0,0,1.3-2.2V28.2c0-.3,0-.6-.1-.7a.7.7,0,0,0-.1-.5v-.4a.4.4,0,0,1-.1-.3,1,1,0,0,1,.5-.8,2,2,0,0,1,1.1-.2,3.6,3.6,0,0,1,2.4.7,2.7,2.7,0,0,1,.8,1.9v9.9a3.6,3.6,0,0,0,.2,1,3.2,3.2,0,0,0,.3.9l.6.6A1.6,1.6,0,0,0,55,40.5Z"/><path class="cls-1" d="M53.8,14.6h5.4V4.7a3.4,3.4,0,0,0-.1-1.1,1.4,1.4,0,0,0-.2-.6c0-.1-.1-.2-.2-.3s-.1-.2-.1-.3.1-.2.2-.3l.5-.2h1.3a3.4,3.4,0,0,1,2.3.8,2.3,2.3,0,0,1,.9,1.9V14.9h5.8l6.1-.2c.3-.3.5-.4.7-.3a.6.6,0,0,1,.3.6,1.7,1.7,0,0,1,0,1,5.1,5.1,0,0,1-.2,1.3,3.1,3.1,0,0,1-.5,1c-.2.3-.4.5-.7.5H63.8v19a3.6,3.6,0,0,0,.5,2.1,2,2,0,0,0,1.5.6,2.3,2.3,0,0,0,1.6-.6,6.4,6.4,0,0,0,1.1-1.6,9,9,0,0,0,.8-2.1c.2-.8.4-1.5.5-2.1a4.8,4.8,0,0,1,.6-1.4,1.2,1.2,0,0,1,.9-.4l.7.2a2,2,0,0,1,.7.6,2.2,2.2,0,0,1,.5.8,3.1,3.1,0,0,1,.2.8v.2c0,.1,0,.1-.1.3a22.2,22.2,0,0,1-1,3.1,11.1,11.1,0,0,1-1.7,3,9.2,9.2,0,0,1-2.5,2.3,6.2,6.2,0,0,1-3.4.9,5.4,5.4,0,0,1-2.2-.4A4.5,4.5,0,0,1,60.8,43a7.2,7.2,0,0,1-1.2-2.1,12.8,12.8,0,0,1-.4-3V18.8H55.1a1.6,1.6,0,0,1-1.3-.7,3.7,3.7,0,0,1-.7-1.4,2.3,2.3,0,0,1-.1-1.4A.8.8,0,0,1,53.8,14.6Z"/><path class="cls-1" d="M70.1,5.9A3.4,3.4,0,0,0,70,4.8c-.1-.2-.1-.4-.2-.6l-.2-.3a.4.4,0,0,1-.1-.3c0-.1.1-.2.2-.3l.4-.2h1.3a3.6,3.6,0,0,1,2.4.8,2.2,2.2,0,0,1,.8,1.9V25.3A25.5,25.5,0,0,1,76,22.9L77.5,21a9.4,9.4,0,0,1,1.8-1.2,5,5,0,0,1,2.1-.5,4.3,4.3,0,0,1,2.4.6,3.6,3.6,0,0,1,1.6,1.4,5.9,5.9,0,0,1,.7,2,7.6,7.6,0,0,1,.3,2.1V38.5a2.9,2.9,0,0,0,.2.9,2,2,0,0,0,.4.8,1.2,1.2,0,0,0,.9.3,2.5,2.5,0,0,0,1.6-.6,6.4,6.4,0,0,0,1.1-1.6,9,9,0,0,0,.8-2.1c.2-.8.4-1.5.5-2.1s.3-1.1.6-1.3a1,1,0,0,1,.8-.5,1.3,1.3,0,0,1,.8.2,2.7,2.7,0,0,1,.8.7,3.1,3.1,0,0,1,.5,1,1.7,1.7,0,0,1,0,1c-.3,1-.6,2-1,3.1a21.4,21.4,0,0,1-1.7,3,9.2,9.2,0,0,1-2.5,2.3,6.4,6.4,0,0,1-3.4.9,3.6,3.6,0,0,1-2.1-.5,6.1,6.1,0,0,1-1.6-1.2,7.7,7.7,0,0,1-1-1.8,7.1,7.1,0,0,1-.3-2.1V25.4c-.1-.4-.1-.8-.2-1.1a2,2,0,0,0-.4-.8l-.7-.2a2.8,2.8,0,0,0-1.5.8,11.1,11.1,0,0,0-1.9,2.3,23.9,23.9,0,0,0-1.6,3.2,23.7,23.7,0,0,0-.9,3.6v9.6a1.9,1.9,0,0,1-.1.8,1.8,1.8,0,0,1-.5.7l-1,.2H72l-.9-.4a1.9,1.9,0,0,1-.7-.8,2.5,2.5,0,0,1-.3-1.3Z"/><path class="cls-1" d="M109.2,40.5a2,2,0,0,0,1.5-.6,6.7,6.7,0,0,0,1.2-1.6,18,18,0,0,0,.8-2.1c.2-.8.3-1.5.5-2.1a2.3,2.3,0,0,1,.6-1.4.9.9,0,0,1,.8-.4l.8.2a3.4,3.4,0,0,1,.6.6,2.2,2.2,0,0,1,.5.8,1.3,1.3,0,0,1,.2.8v.5a23.3,23.3,0,0,1-1.1,3.1,11.1,11.1,0,0,1-1.7,3,8.8,8.8,0,0,1-2.4,2.3,6.4,6.4,0,0,1-3.4.9,5.1,5.1,0,0,1-2.8-.7,3.9,3.9,0,0,1-1.8-1.8,9.6,9.6,0,0,1-2.2,1.8,5.8,5.8,0,0,1-3,.7,6.2,6.2,0,0,1-3.1-.7A6.7,6.7,0,0,1,93,41.9,8.7,8.7,0,0,1,91.6,39a13.7,13.7,0,0,1-.4-3.6,17.8,17.8,0,0,1,1.2-6.7,14.8,14.8,0,0,1,3.2-5.1,14.2,14.2,0,0,1,4.5-3.2,14,14,0,0,1,5.3-1.1,2.6,2.6,0,0,1,2,.7,2.2,2.2,0,0,1,.8,1.8,2.7,2.7,0,0,1-.2,1.1.6.6,0,0,1-.6.3h-1.7a8.7,8.7,0,0,0-3.5.7A10,10,0,0,0,99,26.1,12.2,12.2,0,0,0,96.7,30a16,16,0,0,0-.9,5.6,6.5,6.5,0,0,0,.9,3.7,2.9,2.9,0,0,0,2.5,1.2,2.5,2.5,0,0,0,2-.9,6.9,6.9,0,0,0,1.4-2.2V28.2c0-.3,0-.6-.1-.7a.7.7,0,0,0-.1-.5v-.4a.4.4,0,0,1-.1-.3,1,1,0,0,1,.5-.8,2,2,0,0,1,1.1-.2,3.6,3.6,0,0,1,2.4.7,2.7,2.7,0,0,1,.8,1.9v9.9a3.6,3.6,0,0,0,.2,1,3.2,3.2,0,0,0,.3.9l.6.6A1.6,1.6,0,0,0,109.2,40.5Z"/><path class="cls-1" d="M113.4,22.9a4.5,4.5,0,0,0-.1-1.3,1.7,1.7,0,0,1-.1-.7.8.8,0,0,1,.4-.7,2.4,2.4,0,0,1,1.2-.3,3.4,3.4,0,0,1,2.3.8,2.3,2.3,0,0,1,.9,1.9v2.7a13.6,13.6,0,0,1,1.3-2.4,14.6,14.6,0,0,1,1.6-1.9,5.7,5.7,0,0,1,1.8-1.2,4.6,4.6,0,0,1,2-.5,4.9,4.9,0,0,1,2.5.6,4,4,0,0,1,1.5,1.4,6,6,0,0,1,.8,2,14.9,14.9,0,0,1,.2,2.1V38.5a2.9,2.9,0,0,0,.2.9,2.2,2.2,0,0,0,.5.8,1.1,1.1,0,0,0,.8.3,2.1,2.1,0,0,0,1.6-.6,6.7,6.7,0,0,0,1.2-1.6l.8-2.1c.2-.8.3-1.5.5-2.1a3.2,3.2,0,0,1,.5-1.4,1.2,1.2,0,0,1,.9-.4l.7.2a2,2,0,0,1,.7.6,2.2,2.2,0,0,1,.5.8,3.1,3.1,0,0,1,.2.8v.5c-.3,1-.7,2-1.1,3.1a11.1,11.1,0,0,1-1.7,3,9.2,9.2,0,0,1-2.5,2.3,5.8,5.8,0,0,1-3.3.9A4.2,4.2,0,0,1,128,44a4.4,4.4,0,0,1-1.5-1.2,4,4,0,0,1-1-1.8,4.9,4.9,0,0,1-.4-2.1V25.4a3.6,3.6,0,0,0-.2-1.1l-.3-.8-.7-.2a2.7,2.7,0,0,0-1.6.8,15.5,15.5,0,0,0-1.9,2.3,23.9,23.9,0,0,0-1.6,3.2,15.5,15.5,0,0,0-.8,3.6v9.6a1.9,1.9,0,0,1-.2.8,1.8,1.8,0,0,1-.5.7l-1,.2h-.9l-1-.4a1.9,1.9,0,0,1-.7-.8,2.5,2.5,0,0,1-.3-1.3Z"/><path class="cls-1" d="M169.2,39.3a15.1,15.1,0,0,1-4.3,4.4,8.9,8.9,0,0,1-5,1.5,9.3,9.3,0,0,1-5-1.3,11,11,0,0,1-3.6-3.8,18.6,18.6,0,0,1-2.3-5.9,35.5,35.5,0,0,1-.8-7.6,26.8,26.8,0,0,1,.7-6.2,31.8,31.8,0,0,1,1.8-6,36.6,36.6,0,0,1,2.8-5.6,29.5,29.5,0,0,1,3.9-4.6,18.8,18.8,0,0,1,4.8-3.1A14.7,14.7,0,0,1,167.8,0a9.4,9.4,0,0,1,3,.5A7.5,7.5,0,0,1,173.2,2a6.3,6.3,0,0,1,1.6,2.3,8.1,8.1,0,0,1,.6,3.1,8.7,8.7,0,0,1-.6,3.2,8.9,8.9,0,0,1-1.5,2.9,10,10,0,0,1-2.2,2.4,16.4,16.4,0,0,1-2.6,2,16.9,16.9,0,0,1-2.8,1.2,9.5,9.5,0,0,1-2.8.4,2.8,2.8,0,0,1-1.8-.6,2.6,2.6,0,0,1-.8-2.2V16a6.4,6.4,0,0,1,.2-.7,1.1,1.1,0,0,1,.2-.6c0-.1.1-.2.3-.2h.2l.4.2.6.2h1a6.1,6.1,0,0,0,2.5-.6,10,10,0,0,0,2.4-1.6,11.2,11.2,0,0,0,1.9-2.4,6.8,6.8,0,0,0,.7-2.8,5.2,5.2,0,0,0-.2-1.1,3,3,0,0,0-.6-1.1l-1.1-.8a4.8,4.8,0,0,0-1.8-.3,8,8,0,0,0-3.6.9,11.1,11.1,0,0,0-3.3,2.5,22.4,22.4,0,0,0-2.8,3.7,32.5,32.5,0,0,0-2.2,4.6,48.4,48.4,0,0,0-1.4,5.1,32.7,32.7,0,0,0-.5,5.3,35.1,35.1,0,0,0,.5,5.9,20.5,20.5,0,0,0,1.5,4.4,8.9,8.9,0,0,0,2.1,2.8,4.4,4.4,0,0,0,2.7.9,6.7,6.7,0,0,0,2.8-.6,7.6,7.6,0,0,0,2.3-1.7,10.8,10.8,0,0,0,1.8-2.4c.5-.9.9-1.9,1.3-2.8s.6-2,.8-3a24.6,24.6,0,0,0,.2-2.6V26.3a3.4,3.4,0,0,1-.1-.9,1.4,1.4,0,0,1,.2-.7.8.8,0,0,1,.4-.4H172l1,.5.8.7a1.7,1.7,0,0,1,.3,1l-.3,4.6V44.9l1.7-.2H177c.7,0,1.2.2,1.4.7a2.9,2.9,0,0,1,.1,1.6,5.3,5.3,0,0,1-.8,1.7,2.5,2.5,0,0,1-1.5.8h-2.5c0,1.1-.1,2.3-.2,3.4a34.3,34.3,0,0,1-.6,3.4,26.4,26.4,0,0,1-1,3,8.9,8.9,0,0,1-1.6,2.5,8.1,8.1,0,0,1-2.3,1.7,7,7,0,0,1-3,.6,6.4,6.4,0,0,1-2.8-.6,5.1,5.1,0,0,1-2.1-1.5,5.5,5.5,0,0,1-1.4-2.2,8.6,8.6,0,0,1-.4-2.8,9.1,9.1,0,0,1,.9-4.1,9.3,9.3,0,0,1,2.5-3.1,14.1,14.1,0,0,1,3.5-2.3l4.1-1.6v-.5c0-1.3,0-2.5-.1-3.5Zm-4.1,20.1a2.2,2.2,0,0,0,1.7-.7,4.8,4.8,0,0,0,1.2-2,17.7,17.7,0,0,0,.7-2.9c.2-1.1.3-2.2.4-3.4a10.7,10.7,0,0,0-4.6,2.6,5.7,5.7,0,0,0-1.6,3.9,2.5,2.5,0,0,0,.6,1.9A2.5,2.5,0,0,0,165.1,59.4Z"/><path class="cls-1" d="M191.9,44.5a8.3,8.3,0,0,1-2.2-.3,5.6,5.6,0,0,1-2-1.1,6,6,0,0,1-1.4-2.1,8.1,8.1,0,0,1-.6-3.3,23,23,0,0,1,.8-6.2,55.7,55.7,0,0,1,2.2-7.1h-5.2a14.1,14.1,0,0,0-.1,2.2l-.3,2.9c-.1,1-.3,2-.4,3.1s-.5,2-.7,2.8-.5,1-1,1.1a1.3,1.3,0,0,1-1.2-.2,2.7,2.7,0,0,1-1-1.1,1.7,1.7,0,0,1-.2-1.4,12.4,12.4,0,0,0,.4-2.2,24,24,0,0,0,.3-2.8c.1-1,.1-1.9.2-2.9a20.9,20.9,0,0,1,.1-2.6,5.8,5.8,0,0,1-1.9-1.5,3.7,3.7,0,0,1-.7-2.3,3.6,3.6,0,0,1,.2-1.1,2.2,2.2,0,0,1,.7-.9,2.1,2.1,0,0,1,1-.6l1.1-.2,1.1.2a2.7,2.7,0,0,1,1.1.5l.9,1a5.2,5.2,0,0,1,.7,1.5l1.2.2h5.1l.8.3,1,.8a7.6,7.6,0,0,1,.8,1.1,1.5,1.5,0,0,1,.2,1.1,2.3,2.3,0,0,1-.2.9l-.5,1.7c-.1.7-.4,1.4-.6,2.3l-.6,2.8a28.7,28.7,0,0,0-.5,3.1,15.1,15.1,0,0,0-.2,3,4.9,4.9,0,0,0,.1,1.2,3.6,3.6,0,0,0,.4,1.1,2.7,2.7,0,0,0,.8.7,1.8,1.8,0,0,0,1.1.2,2.7,2.7,0,0,0,1.7-.6,4.8,4.8,0,0,0,1.2-1.6,18.9,18.9,0,0,0,.9-2.1c.2-.8.3-1.5.5-2.1a3.2,3.2,0,0,1,.5-1.4,1.2,1.2,0,0,1,.9-.4l.7.2a2,2,0,0,1,.7.6,2.2,2.2,0,0,1,.5.8,3.1,3.1,0,0,1,.2.8V35a.3.3,0,0,0-.1.2,22.2,22.2,0,0,1-1,3.1,14.6,14.6,0,0,1-1.7,3,9.2,9.2,0,0,1-2.5,2.3A5.8,5.8,0,0,1,191.9,44.5Z"/><path class="cls-1" d="M211,25.4a14,14,0,0,1-.5,3.4,12.9,12.9,0,0,1-1.7,3.3,12.4,12.4,0,0,1-2.8,2.8,10.2,10.2,0,0,1-3.9,1.9,10.9,10.9,0,0,0,.8,1.5,6.8,6.8,0,0,0,1.2,1.2l1.5.8,2.1.2a6.7,6.7,0,0,0,3-.6,6.5,6.5,0,0,0,2.2-1.8,9.2,9.2,0,0,0,1.3-2.4A9.2,9.2,0,0,0,215,33a1.9,1.9,0,0,1,.9-1.3,1.5,1.5,0,0,1,1.3-.2,2.6,2.6,0,0,1,1.1.7,1.8,1.8,0,0,1,.4,1.4c-.1.6-.2,1.3-.4,2.1a22.5,22.5,0,0,1-.8,2.4,15,15,0,0,1-1.5,2.3,7,7,0,0,1-2.1,2.1,8.7,8.7,0,0,1-2.9,1.4,12.3,12.3,0,0,1-3.9.6,11,11,0,0,1-4-.8,9.8,9.8,0,0,1-3.4-2.3,11.8,11.8,0,0,1-2.4-3.7,13.6,13.6,0,0,1-.9-5.1,18.4,18.4,0,0,1,.8-5.3,16.5,16.5,0,0,1,2.1-4.2,10.9,10.9,0,0,1,2.9-2.8,6.3,6.3,0,0,1,3.4-1,8.5,8.5,0,0,1,2.3.4,7,7,0,0,1,1.7,1.3,5.9,5.9,0,0,1,1.1,1.9A10.1,10.1,0,0,1,211,25.4Zm-9.6,7.1v1a6.9,6.9,0,0,0,2-1.3,7.4,7.4,0,0,0,1.6-1.9,8,8,0,0,0,1-2.3,10.9,10.9,0,0,0,.3-2.6,3.1,3.1,0,0,0-.3-1.5,1,1,0,0,0-.9-.6,2.1,2.1,0,0,0-1.3.5,6.4,6.4,0,0,0-1,1.3,13.4,13.4,0,0,0-.7,1.8,16,16,0,0,0-.5,2.1,13.7,13.7,0,0,0-.2,1.9A4.3,4.3,0,0,0,201.4,32.5Z"/><path class="cls-1" d="M228.8,25.4a14,14,0,0,1-.5,3.4,12.9,12.9,0,0,1-1.7,3.3,12.4,12.4,0,0,1-2.8,2.8,10.5,10.5,0,0,1-3.8,1.9,10.1,10.1,0,0,0,.7,1.5l1.2,1.2a6,6,0,0,0,1.6.8l2,.2a6.7,6.7,0,0,0,3-.6,6.5,6.5,0,0,0,2.2-1.8,13.8,13.8,0,0,0,1.4-2.4,27.6,27.6,0,0,0,.8-2.7,1.6,1.6,0,0,1,.8-1.3,1.5,1.5,0,0,1,1.3-.2,2.6,2.6,0,0,1,1.1.7,1.8,1.8,0,0,1,.4,1.4c-.1.6-.2,1.3-.4,2.1a11.3,11.3,0,0,1-.8,2.4c-.4.8-.9,1.5-1.4,2.3a8.8,8.8,0,0,1-2.2,2.1,8.7,8.7,0,0,1-2.9,1.4,12.3,12.3,0,0,1-3.9.6,11,11,0,0,1-4-.8,9.8,9.8,0,0,1-3.4-2.3,11.8,11.8,0,0,1-2.4-3.7,13.6,13.6,0,0,1-.9-5.1,18.4,18.4,0,0,1,.8-5.3,20.6,20.6,0,0,1,2.1-4.2,12.7,12.7,0,0,1,2.9-2.8,6.3,6.3,0,0,1,3.4-1,7.9,7.9,0,0,1,2.3.4,5.5,5.5,0,0,1,1.7,1.3,5.9,5.9,0,0,1,1.1,1.9A10.1,10.1,0,0,1,228.8,25.4Zm-9.6,7.1v1a6.9,6.9,0,0,0,2-1.3,5.8,5.8,0,0,0,1.6-1.9,8,8,0,0,0,1-2.3,10.9,10.9,0,0,0,.4-2.6,3,3,0,0,0-.4-1.5,1,1,0,0,0-.9-.6,2.1,2.1,0,0,0-1.3.5,6.4,6.4,0,0,0-1,1.3,13.4,13.4,0,0,0-.7,1.8c-.2.7-.3,1.4-.5,2.1a13.7,13.7,0,0,0-.2,1.9Z"/><path class="cls-1" d="M232.9,22.9a3.9,3.9,0,0,0-.2-1.3,1.7,1.7,0,0,1-.1-.7c0-.3.1-.5.5-.7a1.8,1.8,0,0,1,1.1-.3,3.2,3.2,0,0,1,2.3.8,2.3,2.3,0,0,1,.9,1.9v2.7a13.6,13.6,0,0,1,1.3-2.4,14.6,14.6,0,0,1,1.6-1.9,5.7,5.7,0,0,1,1.8-1.2,4.6,4.6,0,0,1,2-.5,4.9,4.9,0,0,1,2.5.6,4,4,0,0,1,1.5,1.4,6,6,0,0,1,.8,2,14.9,14.9,0,0,1,.2,2.1V38.5c.1.3.1.6.2.9a2.2,2.2,0,0,0,.5.8,1.2,1.2,0,0,0,.9.3,2,2,0,0,0,1.5-.6,4.8,4.8,0,0,0,1.2-1.6,18,18,0,0,0,.8-2.1c.2-.8.3-1.5.5-2.1a2.3,2.3,0,0,1,.6-1.4.9.9,0,0,1,.8-.4l.7.2a2,2,0,0,1,.7.6,2.2,2.2,0,0,1,.5.8,1.3,1.3,0,0,1,.2.8v.5a23.3,23.3,0,0,1-1.1,3.1,11.1,11.1,0,0,1-1.7,3,9.2,9.2,0,0,1-2.5,2.3,5.8,5.8,0,0,1-3.3.9,3.6,3.6,0,0,1-2.1-.5,4.9,4.9,0,0,1-2.6-3,7.1,7.1,0,0,1-.4-2.1V25.4c0-.4-.1-.8-.1-1.1a5.9,5.9,0,0,0-.4-.8l-.7-.2a3,3,0,0,0-1.6.8,15.4,15.4,0,0,0-1.8,2.3,12,12,0,0,0-1.6,3.2,11.9,11.9,0,0,0-.9,3.6v9.6a1.9,1.9,0,0,1-.2.8,1.8,1.8,0,0,1-.5.7,2.2,2.2,0,0,1-1,.2h-.9l-1-.4a1.9,1.9,0,0,1-.7-.8,2.5,2.5,0,0,1-.2-1.3Z"/><path class="cls-1" d="M41.6,63V54.5h2.8a1.3,1.3,0,0,1,.6.5,1.4,1.4,0,0,1,.5.8,4.1,4.1,0,0,1,.1,1.2,2.2,2.2,0,0,1-.1.9,1.9,1.9,0,0,1-.2.8,1.3,1.3,0,0,1-.7.6,2,2,0,0,1-1.1.3h-.6V63Zm1.3-7.4v2.9H44c.2-.1.2-.2.3-.3a.6.6,0,0,0,.1-.4V56.5a.9.9,0,0,0-.1-.5q0-.2-.3-.3H42.9Z"/><path class="cls-1" d="M51.7,63V54.5h1.2v3.6h1.5V54.5h1.2V63H54.4V59.2H52.9V63Z"/><path class="cls-1" d="M61.9,56.5c0-.4,0-.7.2-.9a1.6,1.6,0,0,1,.4-.7l.7-.4h1.5l.6.4a1.8,1.8,0,0,1,.5.7,2,2,0,0,1,.2.9V61a2,2,0,0,1-.2.9,1.8,1.8,0,0,1-.5.7l-.6.4H63.2l-.7-.4a1.6,1.6,0,0,1-.4-.7c-.2-.2-.2-.5-.2-.9ZM63.1,61a.8.8,0,0,0,.2.6l.6.3.6-.3a.6.6,0,0,0,.3-.6V56.5a.9.9,0,0,0-.3-.7l-.6-.2-.6.2a1.4,1.4,0,0,0-.2.7Z"/><path class="cls-1" d="M72.9,63V55.6H71.5V54.5h4v1.1H74.1V63Z"/><path class="cls-1" d="M81,56.5a2,2,0,0,1,.2-.9,1.8,1.8,0,0,1,.5-.7l.6-.4h1.5l.7.4a4.3,4.3,0,0,1,.4.7,2,2,0,0,1,.2.9V61a2,2,0,0,1-.2.9,4.3,4.3,0,0,1-.4.7l-.7.4H82.3l-.6-.4a1.8,1.8,0,0,1-.5-.7A2,2,0,0,1,81,61ZM82.2,61a1.1,1.1,0,0,0,.9.9.5.5,0,0,0,.5-.3.6.6,0,0,0,.3-.6V56.5a.9.9,0,0,0-.3-.7l-.5-.2a.8.8,0,0,0-.6.2.9.9,0,0,0-.3.7Z"/><path class="cls-1" d="M91.3,56.5c0-.4,0-.7.2-.9a1.6,1.6,0,0,1,.4-.7l.7-.4h1.5l.6.4a1.8,1.8,0,0,1,.5.7,2,2,0,0,1,.2.9v.4H94.1v-.4a.8.8,0,0,0-.2-.7l-.6-.2-.6.2a1.4,1.4,0,0,0-.2.7V61a.8.8,0,0,0,.2.6.8.8,0,0,0,1.2,0c.2-.1.2-.3.2-.6V59.4h-.9V58.3h2.2V61a2,2,0,0,1-.2.9,1.8,1.8,0,0,1-.5.7l-.6.4H92.6l-.7-.4a1.6,1.6,0,0,1-.4-.7c-.2-.2-.2-.5-.2-.9Z"/><path class="cls-1" d="M101.6,63V54.5h2c1.4,0,2.1.8,2.1,2.5a2.7,2.7,0,0,1-.2,1.3,1.5,1.5,0,0,1-.8.8L106,63h-1.3l-1.1-3.6h-.8V63Zm1.2-7.4v2.7h1.3l.3-.3c0-.1.1-.2.1-.4V56.4a.5.5,0,0,0-.2-.4c-.1-.3-.4-.4-.8-.4Z"/><path class="cls-1" d="M111.3,63l1.9-8.5h1.1l1.9,8.5h-1.3l-.3-1.8h-1.7l-.3,1.8Zm3.1-3-.6-3.1h-.1l-.6,3.1Z"/><path class="cls-1" d="M121.9,63V54.5h2.8l.7.5a2,2,0,0,1,.4.8,4.1,4.1,0,0,1,.1,1.2,2.2,2.2,0,0,1-.1.9,1.9,1.9,0,0,1-.2.8,1.3,1.3,0,0,1-.7.6,2,2,0,0,1-1.1.3h-.6V63Zm1.3-7.4v2.9h1.1q.3-.1.3-.3a.6.6,0,0,0,.1-.4c0-.2.1-.4.1-.6s-.1-.4-.1-.6a.9.9,0,0,0-.1-.5q0-.2-.3-.3h-1.1Z"/><path class="cls-1" d="M132,63V54.5h1.2v3.6h1.5V54.5h1.2V63h-1.2V59.2h-1.5V63Z"/><path class="cls-1" d="M143.4,63V59.4l-1.7-4.9H143l1,3.4h0l1-3.4h1.3l-1.7,4.9V63Z"/><path class="cls-2" d="M273.4,15.2V16a2.4,2.4,0,0,1-.9,1.5l-.2.2a15.2,15.2,0,0,1-4.9,4.2c-2.6,1.4-5.3,2.7-8,4-.7.4-1.1.3-1.5-.4l-4.8-9.1c-.5-1.2-.8-2.5-1.2-3.7a8.5,8.5,0,0,0-.4-1.7,3.8,3.8,0,0,1,2.6-4.5,9.5,9.5,0,0,1,1.8-.4,4.3,4.3,0,0,1,2.8,1.1,10.1,10.1,0,0,1,1.6,1.3,8.1,8.1,0,0,1,1.3,3l.3,1c.1.3.3.3.5.2l.7-.5a10.5,10.5,0,0,1,5.7-1.9,4.7,4.7,0,0,1,4.4,2.7A3.4,3.4,0,0,1,273.4,15.2ZM256.9,8h0l-2.4.3a1.4,1.4,0,0,0-1.1,1.3,10.9,10.9,0,0,0,.1,1.8,25.1,25.1,0,0,0,2.6,7.4c.9,1.5,1.7,3.1,2.5,4.7a1,1,0,0,0,1.6.4,11.8,11.8,0,0,1,1.9-1.1,31.2,31.2,0,0,0,7-4.1,9,9,0,0,0,2.4-2.7,3.8,3.8,0,0,0,.4-2.1,3.1,3.1,0,0,0-3.9-2.7,14.2,14.2,0,0,0-6.4,3.4h-.2l-.4.3c-.1-.2-.2-.3-.2-.5s-.3-2-.5-3A3.9,3.9,0,0,0,256.9,8Z"/></g></g></svg>