<svg viewBox="0 0 68.7 64.1" xmlns="http://www.w3.org/2000/svg"><g fill="#805AD5"><path d="m19.2 7.6c.7-1 1.3-2 2-2.9a16.1 16.1 0 0 1 2.2-2.3 11.1 11.1 0 0 1 2.4-1.6 6.2 6.2 0 0 1 2.6-.6l1.3.3a3.4 3.4 0 0 1 1.4.8 6.2 6.2 0 0 1 1 1.6 9.3 9.3 0 0 1 .4 2.5v35a5.3 5.3 0 0 0 .2 1.9 3.3 3.3 0 0 0 .5 1.2 1.9 1.9 0 0 0 .7.8l.7.6.5.4c.2.1.2.3.2.5a.8.8 0 0 1 -.2.7 1.3 1.3 0 0 1 -.6.7 3.1 3.1 0 0 1 -1 .5l-1.2.2a4.4 4.4 0 0 1 -1.5-.3 3.6 3.6 0 0 1 -1.4-1.1 5 5 0 0 1 -1.1-1.9 9.8 9.8 0 0 1 -.5-3.2v-35.6a1 1 0 0 0 -.2-.7l-.4-.2c-.3 0-.7.3-1.2.8a11.2 11.2 0 0 0 -1.6 1.9 19.5 19.5 0 0 0 -1.8 2.6 32.4 32.4 0 0 0 -1.7 3.2 19.8 19.8 0 0 0 -1.2 3.1 11 11 0 0 0 -.5 2.9v23.1a1.2 1.2 0 0 1 -.4 1.1 2.7 2.7 0 0 1 -1.2.3l-1.1-.2-.9-.3-.7-.6a.9.9 0 0 1 -.3-.6v-37.3a11.9 11.9 0 0 0 -3.8 1.1 10.8 10.8 0 0 0 -3.2 2.4 12.3 12.3 0 0 0 -2.1 3.7 15.4 15.4 0 0 0 -.8 5 16.6 16.6 0 0 0 .4 3.3 23 23 0 0 0 .9 2.5 6.5 6.5 0 0 0 1.1 1.5c.3.4.6.6.8.6h1c.3 0 .4.2.4.7a3.9 3.9 0 0 1 -.2 1.3 5 5 0 0 1 -.8 1.2 2.8 2.8 0 0 1 -1 .9 2.7 2.7 0 0 1 -1.2.3 3 3 0 0 1 -1.8-.9 9.4 9.4 0 0 1 -2-2.6 17.6 17.6 0 0 1 -1.6-3.9 15.3 15.3 0 0 1 -.7-4.9 18.9 18.9 0 0 1 .8-5.6 13.7 13.7 0 0 1 2-4.4 11.4 11.4 0 0 1 3-3.2 14.1 14.1 0 0 1 3.5-2.1 14.6 14.6 0 0 1 3.9-1.2 15.3 15.3 0 0 1 3.6-.4l1 .2.7.5a2.2 2.2 0 0 1 .5.8 1.8 1.8 0 0 1 .2 1z"/><path d="m59.3 39.3a15.1 15.1 0 0 1 -4.3 4.4 8.9 8.9 0 0 1 -5 1.5 9.3 9.3 0 0 1 -5-1.3 11 11 0 0 1 -3.6-3.8 18.6 18.6 0 0 1 -2.3-5.9 35.5 35.5 0 0 1 -.8-7.6 33.4 33.4 0 0 1 .6-6.2 41.8 41.8 0 0 1 1.9-6 29.3 29.3 0 0 1 2.8-5.6 29.5 29.5 0 0 1 3.9-4.6 17.2 17.2 0 0 1 4.8-3.1 14.7 14.7 0 0 1 5.6-1.1 9.9 9.9 0 0 1 3 .5 7.5 7.5 0 0 1 2.4 1.5 6.3 6.3 0 0 1 1.6 2.3 8.1 8.1 0 0 1 .6 3.1 8.7 8.7 0 0 1 -.6 3.2 8.9 8.9 0 0 1 -1.5 2.9 10 10 0 0 1 -2.2 2.4 16.4 16.4 0 0 1 -2.6 2 16.9 16.9 0 0 1 -2.8 1.2 9.5 9.5 0 0 1 -2.8.4 2.8 2.8 0 0 1 -1.8-.6 2.6 2.6 0 0 1 -.8-2.2v-.7a1.4 1.4 0 0 1 .2-.7 1.1 1.1 0 0 1 .2-.6l.2-.2h.3l.4.2.6.2h1a6.1 6.1 0 0 0 2.5-.6 12.5 12.5 0 0 0 2.4-1.6 8.4 8.4 0 0 0 1.8-2.2 5.7 5.7 0 0 0 .8-2.8 5.2 5.2 0 0 0 -.2-1.1 3 3 0 0 0 -.6-1.1 3.6 3.6 0 0 0 -1.2-.8 4 4 0 0 0 -1.7-.3 8 8 0 0 0 -3.6.9 11.1 11.1 0 0 0 -3.3 2.5 22.4 22.4 0 0 0 -2.8 3.7 32.5 32.5 0 0 0 -2.2 4.6 32.3 32.3 0 0 0 -1.4 5.1 32.7 32.7 0 0 0 -.5 5.3 35.1 35.1 0 0 0 .5 5.9 20.7 20.7 0 0 0 1.4 4.4 10.9 10.9 0 0 0 2.2 2.8 4.4 4.4 0 0 0 2.7.9 6.7 6.7 0 0 0 2.8-.6 7.6 7.6 0 0 0 2.3-1.7 10.8 10.8 0 0 0 1.8-2.4c.5-.9.9-1.9 1.3-2.8a16.3 16.3 0 0 0 .7-3 12.2 12.2 0 0 0 .3-2.6v-1.1a3.4 3.4 0 0 1 -.1-.9.8.8 0 0 1 .2-.7l.4-.4h2.3l1 .5.8.7a1.7 1.7 0 0 1 .3 1l-.3 4.6v13.8l1.7-.2h1.5c.7 0 1.2.2 1.4.7a2.9 2.9 0 0 1 .1 1.6 4 4 0 0 1 -.9 1.7 2 2 0 0 1 -1.4.8h-2.5c0 1.1-.1 2.3-.2 3.4a34.3 34.3 0 0 1 -.6 3.4 26.4 26.4 0 0 1 -1 3 12 12 0 0 1 -1.6 2.5 8.1 8.1 0 0 1 -2.3 1.7 7 7 0 0 1 -3 .6 6.1 6.1 0 0 1 -2.8-.6 5.1 5.1 0 0 1 -2.1-1.5 5.5 5.5 0 0 1 -1.4-2.2 8.6 8.6 0 0 1 -.4-2.8 9.1 9.1 0 0 1 .9-4.1 9.3 9.3 0 0 1 2.5-3.1 14.1 14.1 0 0 1 3.5-2.3l4.1-1.6v-.5c0-1.3-.1-2.5-.1-3.5zm-4.1 20.1a2.3 2.3 0 0 0 1.7-.7 4.8 4.8 0 0 0 1.2-2 17.7 17.7 0 0 0 .7-2.9c.2-1.1.3-2.2.4-3.4a10.7 10.7 0 0 0 -4.6 2.6 5.3 5.3 0 0 0 -1.6 3.9 2.5 2.5 0 0 0 .6 1.9 2.5 2.5 0 0 0 1.6.6z"/></g></svg>